<?xml version="1.0" standalone="no"?>
<!DOCTYPE svg PUBLIC "-//W3C//DTD SVG 20010904//EN"
 "http://www.w3.org/TR/2001/REC-SVG-20010904/DTD/svg10.dtd">
<svg version="1.0" xmlns="http://www.w3.org/2000/svg"
 width="776.000000pt" height="776.000000pt" viewBox="0 0 776.000000 776.000000"
 preserveAspectRatio="xMidYMid meet">
<metadata>
Created by potrace 1.14, written by Peter Selinger 2001-2017
</metadata>
<g transform="translate(0.000000,776.000000) scale(0.100000,-0.100000)"
fill="#000000" stroke="none">
<path d="M1123 7741 c-18 -11 -39 -34 -48 -50 -13 -27 -15 -417 -15 -3813 0
-3734 0 -3783 20 -3815 39 -65 27 -64 579 -61 489 3 500 3 528 24 58 43 54
-36 54 1409 0 734 3 1336 7 1336 4 1 475 2 1047 4 572 1 1076 5 1120 9 44 3
106 9 138 11 32 3 104 12 160 20 672 101 1188 409 1549 925 53 77 137 218 162
275 9 22 23 51 31 65 55 102 152 403 184 570 10 53 12 66 25 140 24 142 31
259 31 485 0 263 -15 417 -60 635 -2 14 -7 39 -11 55 -8 42 -73 266 -83 290
-5 11 -26 63 -46 115 -65 165 -212 425 -292 516 -10 12 -29 37 -43 55 -43 58
-211 226 -290 290 -41 33 -82 66 -90 72 -35 29 -161 108 -235 149 -196 107
-475 205 -690 243 -22 4 -49 9 -60 10 -11 2 -29 6 -40 8 -11 3 -60 10 -110 16
-49 7 -103 15 -120 18 -16 4 -781 8 -1700 10 -1652 4 -1670 3 -1702 -16z
m3277 -1124 c14 -3 43 -8 65 -12 134 -19 325 -81 424 -136 264 -147 462 -422
551 -768 22 -85 24 -93 35 -161 3 -25 9 -58 12 -75 9 -52 10 -287 2 -363 -30
-278 -115 -524 -246 -710 -62 -89 -203 -229 -278 -277 -146 -93 -304 -153
-479 -181 -21 -3 -48 -7 -60 -10 -66 -13 -350 -17 -1218 -18 l-966 -1 0 1355
c-1 745 2 1358 5 1363 6 9 2113 4 2153 -6z"/>
</g>
</svg>
