<svg version="1.0" xmlns="http://www.w3.org/2000/svg" width="1034.667" height="1034.667" viewBox="0 0 776 776"><path d="M112.3 1.9c-1.8 1.1-3.9 3.4-4.8 5-1.3 2.7-1.5 41.7-1.5 381.3 0 373.4 0 378.3 2 381.5 3.9 6.5 2.7 6.4 57.9 6.1 48.9-.3 50-.3 52.8-2.4 5.8-4.3 5.4 3.6 5.4-140.9 0-73.4.3-133.6.7-133.6.4-.1 47.5-.2 104.7-.4 57.2-.1 107.6-.5 112-.9 4.4-.3 10.6-.9 13.8-1.1 3.2-.3 10.4-1.2 16-2 67.2-10.1 118.8-40.9 154.9-92.5 5.3-7.7 13.7-21.8 16.2-27.5.9-2.2 2.3-5.1 3.1-6.5 5.5-10.2 15.2-40.3 18.4-57 1-5.3 1.2-6.6 2.5-14 2.4-14.2 3.1-25.9 3.1-48.5 0-26.3-1.5-41.7-6-63.5-.2-1.4-.7-3.9-1.1-5.5-.8-4.2-7.3-26.6-8.3-29-.5-1.1-2.6-6.3-4.6-11.5-6.5-16.5-21.2-42.5-29.2-51.6-1-1.2-2.9-3.7-4.3-5.5-4.3-5.8-21.1-22.6-29-29-4.1-3.3-8.2-6.6-9-7.2-3.5-2.9-16.1-10.8-23.5-14.9-19.6-10.7-47.5-20.5-69-24.3-2.2-.4-4.9-.9-6-1-1.1-.2-2.9-.6-4-.8-1.1-.3-6-1-11-1.6-4.9-.7-10.3-1.5-12-1.8-1.6-.4-78.1-.8-170-1-165.2-.4-167-.3-170.2 1.6zM440 114.3c1.4.3 4.3.8 6.5 1.2 13.4 1.9 32.5 8.1 42.4 13.6 26.4 14.7 46.2 42.2 55.1 76.8 2.2 8.5 2.4 9.3 3.5 16.1.3 2.5.9 5.8 1.2 7.5.9 5.2 1 28.7.2 36.3-3 27.8-11.5 52.4-24.6 71-6.2 8.9-20.3 22.9-27.8 27.7-14.6 9.3-30.4 15.3-47.9 18.1-2.1.3-4.8.7-6 1-6.6 1.3-35 1.7-121.8 1.8l-96.6.1V250c-.1-74.5.2-135.8.5-136.3.6-.9 211.3-.4 215.3.6z"/></svg>